#N canvas 26 26 1920 989 12;
#X obj 476 261 *~ 0.1;
#X obj 548 259 *~ 0.1;
#X obj 475 229 osc~ 467;
#X obj 547 227 osc~ 468;
#X obj 475 292 dac~ 1 2;
#X obj 660 259 *~ 0.1;
#X obj 732 257 *~ 0.1;
#X obj 659 290 dac~ 1 2;
#X obj 659 227 osc~ 322;
#X obj 731 225 osc~ 333;
#X obj 815 258 *~ 0.1;
#X obj 887 256 *~ 0.1;
#X obj 814 289 dac~ 1 2;
#X obj 814 226 osc~ 505;
#X obj 886 224 osc~ 523;
#X obj 972 257 *~ 0.1;
#X obj 1044 255 *~ 0.1;
#X obj 971 288 dac~ 1 2;
#X obj 971 225 osc~ 606;
#X obj 1043 223 osc~ 666;
#X obj 473 362 *~ 0.1;
#X obj 545 360 *~ 0.1;
#X obj 472 393 dac~ 1 2;
#X obj 657 360 *~ 0.1;
#X obj 729 358 *~ 0.1;
#X obj 656 391 dac~ 1 2;
#X obj 472 330 osc~ 92;
#X obj 544 328 osc~ 99;
#X obj 656 328 osc~ 123;
#X obj 728 326 osc~ 125;
#X obj 822 360 *~ 0.1;
#X obj 894 358 *~ 0.1;
#X obj 821 391 dac~ 1 2;
#X obj 821 328 osc~ 145;
#X obj 893 326 osc~ 143;
#X obj 972 362 *~ 0.1;
#X obj 1044 360 *~ 0.1;
#X obj 971 393 dac~ 1 2;
#X obj 971 330 osc~ 256;
#X obj 1043 328 osc~ 205;
#X obj 478 463 *~ 0.1;
#X obj 550 461 *~ 0.1;
#X obj 477 494 dac~ 1 2;
#X obj 477 431 osc~ 808;
#X obj 549 429 osc~ 888;
#X obj 656 462 *~ 0.1;
#X obj 728 460 *~ 0.1;
#X obj 655 493 dac~ 1 2;
#X obj 655 430 osc~ 707;
#X obj 727 428 osc~ 777;
#X obj 828 463 *~ 0.1;
#X obj 900 461 *~ 0.1;
#X obj 827 494 dac~ 1 2;
#X obj 827 431 osc~ 909;
#X obj 899 429 osc~ 999;
#X obj 978 460 *~ 0.1;
#X obj 1050 458 *~ 0.1;
#X obj 977 491 dac~ 1 2;
#X obj 977 428 osc~ 1010;
#X obj 1049 426 osc~ 1111;
#X obj 475 564 *~ 0.1;
#X obj 547 562 *~ 0.1;
#X obj 474 595 dac~ 1 2;
#X obj 474 532 osc~ 2020;
#X obj 546 530 osc~ 2222;
#X obj 653 564 *~ 0.1;
#X obj 725 562 *~ 0.1;
#X obj 652 595 dac~ 1 2;
#X obj 652 532 osc~ 4040;
#X obj 724 530 osc~ 4444;
#X obj 828 567 *~ 0.1;
#X obj 900 565 *~ 0.1;
#X obj 827 598 dac~ 1 2;
#X obj 827 535 osc~ 8080;
#X obj 899 533 osc~ 8888;
#X connect 0 0 4 0;
#X connect 1 0 4 1;
#X connect 2 0 0 0;
#X connect 3 0 1 0;
#X connect 5 0 7 0;
#X connect 6 0 7 1;
#X connect 8 0 5 0;
#X connect 9 0 6 0;
#X connect 10 0 12 0;
#X connect 11 0 12 1;
#X connect 13 0 10 0;
#X connect 14 0 11 0;
#X connect 15 0 17 0;
#X connect 16 0 17 1;
#X connect 18 0 15 0;
#X connect 19 0 16 0;
#X connect 20 0 22 0;
#X connect 21 0 22 1;
#X connect 23 0 25 0;
#X connect 24 0 25 1;
#X connect 26 0 20 0;
#X connect 27 0 21 0;
#X connect 28 0 23 0;
#X connect 29 0 24 0;
#X connect 30 0 32 0;
#X connect 31 0 32 1;
#X connect 33 0 30 0;
#X connect 34 0 31 0;
#X connect 35 0 37 0;
#X connect 36 0 37 1;
#X connect 38 0 35 0;
#X connect 39 0 36 0;
#X connect 40 0 42 0;
#X connect 41 0 42 1;
#X connect 43 0 40 0;
#X connect 44 0 41 0;
#X connect 45 0 47 0;
#X connect 46 0 47 1;
#X connect 48 0 45 0;
#X connect 49 0 46 0;
#X connect 50 0 52 0;
#X connect 51 0 52 1;
#X connect 53 0 50 0;
#X connect 54 0 51 0;
#X connect 55 0 57 0;
#X connect 56 0 57 1;
#X connect 58 0 55 0;
#X connect 59 0 56 0;
#X connect 60 0 62 0;
#X connect 61 0 62 1;
#X connect 63 0 60 0;
#X connect 64 0 61 0;
#X connect 65 0 67 0;
#X connect 66 0 67 1;
#X connect 68 0 65 0;
#X connect 69 0 66 0;
#X connect 70 0 72 0;
#X connect 71 0 72 1;
#X connect 73 0 70 0;
#X connect 74 0 71 0;
