#N canvas -8 -8 1920 984 10;
#N canvas 727 334 450 300 MasterThing 0;
#N canvas 727 334 450 300 hereItGOes 0;
#X obj 670 320 cycle~ 440;
#X obj 666 345 *~ 0.3;
#X obj 757 350 *~ 0.3;
#X obj 701 395 dac~ 1 2;
#X obj 761 325 cycle~ 441;
#X connect 0 0 1 0;
#X connect 1 0 3 0;
#X connect 2 0 3 1;
#X connect 4 0 2 0;
#X restore 40 40 pd hereItGOes;
#N canvas 0 0 1920 984 hereItGOes 0;
#X obj 666 345 *~ 0.3;
#X obj 757 350 *~ 0.3;
#X obj 701 395 dac~ 1 2;
#X obj 670 320 cycle~ 99;
#X obj 761 325 cycle~ 92;
#X connect 0 0 2 0;
#X connect 1 0 2 1;
#X connect 3 0 0 0;
#X connect 4 0 1 0;
#X restore 170 40 pd hereItGOes;
#N canvas 0 0 1904 968 hereItGOes 0;
#X obj 701 395 dac~ 1 2;
#X obj 670 320 cycle~ 205;
#X obj 761 325 cycle~ 225;
#X obj 757 350 *~ 0.03;
#X obj 666 345 *~ 0.03;
#X connect 1 0 4 0;
#X connect 2 0 3 0;
#X connect 3 0 0 1;
#X connect 4 0 0 0;
#X restore 290 40 pd hereItGOes;
#N canvas 0 0 1904 968 hereItGOes 0;
#X obj 701 395 dac~ 1 2;
#X obj 670 320 cycle~ 467;
#X obj 761 325 cycle~ 467;
#X obj 666 345 *~ 0.1;
#X obj 757 350 *~ 0.1;
#X connect 1 0 3 0;
#X connect 2 0 4 0;
#X connect 3 0 0 0;
#X connect 4 0 0 1;
#X restore 420 40 pd hereItGOes;
#N canvas 0 0 1904 968 hereItGOes 0;
#X obj 701 395 dac~ 1 2;
#X obj 666 345 *~ 0.1;
#X obj 757 350 *~ 0.1;
#X obj 670 320 cycle~ 505;
#X obj 761 325 cycle~ 523;
#X connect 1 0 0 0;
#X connect 2 0 0 1;
#X connect 3 0 1 0;
#X connect 4 0 2 0;
#X restore 40 80 pd hereItGOes;
#N canvas 0 0 1904 968 hereItGOes 0;
#X obj 701 395 dac~ 1 2;
#X obj 666 345 *~ 0.1;
#X obj 757 350 *~ 0.1;
#X obj 670 320 cycle~ 606;
#X obj 761 325 cycle~ 666;
#X connect 1 0 0 0;
#X connect 2 0 0 1;
#X connect 3 0 1 0;
#X connect 4 0 2 0;
#X restore 170 80 pd hereItGOes;
#N canvas 0 0 1904 968 hereItGOes 0;
#X obj 701 395 dac~ 1 2;
#X obj 670 320 cycle~ 707;
#X obj 761 325 cycle~ 777;
#X obj 757 350 *~ 0.03;
#X obj 666 345 *~ 0.03;
#X connect 1 0 4 0;
#X connect 2 0 3 0;
#X connect 3 0 0 1;
#X connect 4 0 0 0;
#X restore 290 80 pd hereItGOes;
#N canvas 0 0 1904 968 hereItGOes 0;
#X obj 701 395 dac~ 1 2;
#X obj 757 350 *~ 0.03;
#X obj 666 345 *~ 0.03;
#X obj 670 320 cycle~ 808;
#X obj 761 325 cycle~ 888;
#X connect 1 0 0 1;
#X connect 2 0 0 0;
#X connect 3 0 2 0;
#X connect 4 0 1 0;
#X restore 420 80 pd hereItGOes;
#N canvas 0 0 1904 968 hereItGOes 0;
#X obj 701 395 dac~ 1 2;
#X obj 757 350 *~ 0.03;
#X obj 666 345 *~ 0.03;
#X obj 670 320 cycle~ 909;
#X obj 761 325 cycle~ 999;
#X connect 1 0 0 1;
#X connect 2 0 0 0;
#X connect 3 0 2 0;
#X connect 4 0 1 0;
#X restore 40 120 pd hereItGOes;
#N canvas 0 0 1904 968 hereItGOes 0;
#X obj 701 395 dac~ 1 2;
#X obj 757 350 *~ 0.03;
#X obj 666 345 *~ 0.03;
#X obj 670 320 cycle~ 1010;
#X obj 761 325 cycle~ 1111;
#X connect 1 0 0 1;
#X connect 2 0 0 0;
#X connect 3 0 2 0;
#X connect 4 0 1 0;
#X restore 170 120 pd hereItGOes;
#N canvas 0 0 1904 968 hereItGOes 0;
#X obj 701 395 dac~ 1 2;
#X obj 757 350 *~ 0.03;
#X obj 666 345 *~ 0.03;
#X obj 670 320 cycle~ 2020;
#X obj 761 325 cycle~ 2222;
#X connect 1 0 0 1;
#X connect 2 0 0 0;
#X connect 3 0 2 0;
#X connect 4 0 1 0;
#X restore 290 120 pd hereItGOes;
#N canvas 0 0 1904 968 hereItGOes 0;
#X obj 701 395 dac~ 1 2;
#X obj 757 350 *~ 0.03;
#X obj 666 345 *~ 0.03;
#X obj 670 320 cycle~ 4040;
#X obj 761 325 cycle~ 4444;
#X connect 1 0 0 1;
#X connect 2 0 0 0;
#X connect 3 0 2 0;
#X connect 4 0 1 0;
#X restore 420 120 pd hereItGOes;
#X restore 340 220 pd MasterThing;
#X obj 450 220 pddp/dsp;
